<?xml version="1.0" encoding="UTF-8"?>
<svg width="124px" height="100px" viewBox="0 0 124 100" version="1.1" xmlns="http://www.w3.org/2000/svg" xmlns:xlink="http://www.w3.org/1999/xlink">
    <title>空状态-暗色</title>
    <defs>
        <filter color-interpolation-filters="auto" id="filter-1">
            <feColorMatrix in="SourceGraphic" type="matrix" values="0 0 0 0 0.337255 0 0 0 0 0.439216 0 0 0 0 0.549020 0 0 0 1.000000 0"></feColorMatrix>
        </filter>
        <path d="M50.886,3.0003 L50.886,4.1823 C50.887,6.3913 49.097,8.1823 46.889,8.1823 L46.889,8.1823 L25,8.1823 L24.8,8.1773 C22.684,8.0743 21,6.3253 21,4.1823 L21,4.1823 L21,2.9993 C21,1.8953 20.105,0.9993 19,0.9993 L19,0.9993 L0,1.0003 L0,23.0003 C0,25.2093 1.791,27.0003 4,27.0003 L4,27.0003 L68.1,27.0003 C70.309,27.0003 72.1,25.2093 72.1,23.0003 L72.1,23.0003 L72.1,1.0003 L52.887,0.9993 C51.782,0.9993 50.886,1.8963 50.886,3.0003 L50.886,3.0003 Z" id="path-2"></path>
        <path d="M0,12 C0,14.351 0.846,16.544 2.305,18.395 L2.305,18.395 C2.517,18.663 2.59,19.014 2.482,19.338 L2.482,19.338 L1.143,23.326 L5.489,21.717 C5.765,21.615 6.069,21.645 6.326,21.791 L6.326,21.791 C8.775,23.182 11.768,24 15,24 L15,24 C23.284,24 30,18.628 30,12 L30,12 C30,5.372 23.284,0 15,0 L15,0 C6.716,0 0,5.372 0,12 L0,12 Z" id="path-4"></path>
    </defs>
    <g id="空状态-暗色" stroke="none" stroke-width="1" fill="none" fill-rule="evenodd">
        <rect id="矩形" opacity="0.0764898256" x="0" y="0" width="124" height="100"></rect>
        <ellipse id="椭圆形" fill="#1F4366" cx="61.5" cy="89.6931273" rx="44.5" ry="9"></ellipse>
        <polygon id="矩形" fill="#7A8FA4" points="39.7169014 48.8931273 83.3830986 48.8931273 97.6 65.9931273 25.5 65.9931273"></polygon>
        <rect id="矩形" fill="#3D5B7B" x="36.55" y="20.1931273" width="50" height="54" rx="2"></rect>
        <rect id="矩形" fill="#56708C" x="43.5" y="26.1931273" width="36" height="20" rx="2"></rect>
        <rect id="矩形备份" fill="#56708C" x="43.5" y="52.1306273" width="36" height="3" rx="1.5"></rect>
        <rect id="矩形备份-2" fill="#56708C" x="43.5" y="60.40732" width="36" height="3" rx="1.5"></rect>
        <g filter="url(#filter-1)" id="编组">
            <g transform="translate(25.500000, 65.010836)">
                <mask id="mask-3" fill="white">
                    <use xlink:href="#path-2"></use>
                </mask>
                <g id="Clip-2"></g>
                <polygon id="Fill-1" fill="#DCE0E8" mask="url(#mask-3)" points="-5 32.0003 77.1 32.0003 77.1 -3.9997 -5 -3.9997"></polygon>
            </g>
        </g>
        <g id="编组" transform="translate(93.000000, 1.000000)">
            <mask id="mask-5" fill="white">
                <use xlink:href="#path-4"></use>
            </mask>
            <g id="Clip-2"></g>
            <polygon id="Fill-1" fill="#3D5B7B" mask="url(#mask-5)" points="-5 29 35 29 35 -5 -5 -5"></polygon>
            <rect id="矩形" fill="#FFFFFF" mask="url(#mask-5)" x="-21" y="8" width="4" height="4"></rect>
        </g>
        <rect id="矩形" fill="#56708C" x="106.196938" y="10.1393807" width="4" height="4"></rect>
        <circle id="椭圆形" fill="#56708C" cx="113.820803" cy="12.1393807" r="2"></circle>
        <polygon id="三角形" fill="#56708C" points="102.179197 10.1393807 104.179197 14.1393807 100.179197 14.1393807"></polygon>
    </g>
</svg>